<?xml version="1.0" encoding="UTF-8" standalone="no"?>
<!-- Created with Inkscape (http://www.inkscape.org/) -->

<svg
   width="210mm"
   height="297mm"
   viewBox="0 0 210 297"
   version="1.1"
   id="svg1"
   inkscape:version="1.4.2 (f4327f4, 2025-05-13)"
   sodipodi:docname="letters.svg"
   xmlns:inkscape="http://www.inkscape.org/namespaces/inkscape"
   xmlns:sodipodi="http://sodipodi.sourceforge.net/DTD/sodipodi-0.dtd"
   xmlns="http://www.w3.org/2000/svg"
   xmlns:svg="http://www.w3.org/2000/svg">
  <sodipodi:namedview
     id="namedview1"
     pagecolor="#ffffff"
     bordercolor="#000000"
     borderopacity="0.25"
     inkscape:showpageshadow="2"
     inkscape:pageopacity="0.0"
     inkscape:pagecheckerboard="0"
     inkscape:deskcolor="#d1d1d1"
     inkscape:document-units="mm"
     showguides="false"
     inkscape:zoom="0.37905794"
     inkscape:cx="1114.6053"
     inkscape:cy="433.97059"
     inkscape:window-width="1920"
     inkscape:window-height="1111"
     inkscape:window-x="-9"
     inkscape:window-y="-9"
     inkscape:window-maximized="1"
     inkscape:current-layer="layer1" />
  <defs
     id="defs1" />
  <g
     inkscape:label="Слой 1"
     inkscape:groupmode="layer"
     id="layer1">
    <path
       style="fill:#24221c;stroke-width:0.264583"
       d="m 9.1054146,172.40133 25.1280894,-0.349 0.0617,39.15164 -7.914225,-0.2556 1.2215,-32.09057 -11.217326,0.39134 -0.685599,32.07635 c 0,0 -3.06661,0.21171 -8.3633182,-0.22379 0.9254294,-7.67803 1.7691888,-38.70042 1.7691888,-38.70042 z"
       id="path1"
       sodipodi:nodetypes="cccccccccc" />
    <path
       style="fill:#24221c;stroke-width:0.244677"
       d="m 159.89834,232.49006 0.71898,27.93306 -6.68223,-0.54821 -0.72061,-20.01632 -9.67144,-0.39007 0.40449,21.07053 c 0,0 -2.74902,0.20197 -7.49717,-0.21349 0.82959,-7.32473 0.47984,-28.67974 0.47984,-28.67974 8.30493,0.29636 15.20648,0.48473 22.96814,0.84424 z"
       id="path1-3"
       sodipodi:nodetypes="ccccccccc" />
    <path
       style="fill:#24221c;stroke-width:0.339041"
       d="m 36.34007,184.28984 -0.552931,39.2893 7.34128,0.0725 -0.522441,-32.25636 c 0,0 6.313696,-0.43396 6.607156,4.65176 0.25055,4.34205 -1.081355,5.67186 -7.110335,7.06313 0.4432,2.23521 0.40706,4.26791 0.40706,6.55729 0,0 12.73847,-2.39876 12.71916,-12.32709 -0.024,-12.35789 -12.64184,-12.65042 -12.64184,-12.65042 z"
       id="path2"
       sodipodi:nodetypes="ccccsccscc" />
    <path
       style="fill:#24221c;stroke-width:0.313152"
       d="m 397.14654,234.21972 0.23112,29.44343 -6.73796,-0.20813 0.74334,-24.03262 c 0,0 -7.84187,-0.57482 -8.17446,3.25342 -0.28396,3.26845 1.58616,3.11634 8.41899,4.16361 -0.50229,1.68255 -0.28684,3.88748 -0.28684,5.61079 0,0 -8.31499,11.79585 -14.02123,10.52992 -1.66144,-0.36859 -2.40291,-4.50466 -2.40291,-4.50466 3.65301,0 11.02835,-7.10667 11.02835,-7.10667 0,0 -8.06493,1.9142 -8.23396,-8.24295 -0.15479,-9.30107 13.54213,-8.99902 13.54213,-8.99902 z"
       id="path2-8"
       sodipodi:nodetypes="ccccsccaccscc" />
    <path
       style="fill:#24221c;stroke-width:0.339041"
       d="m 334.11584,233.13467 -0.20393,39.1148 5.94528,-0.2765 -0.34794,-33.30336 c 0,0 7.5352,0.61304 7.82866,5.69876 0.25055,4.34205 -2.47736,6.89336 -8.50634,8.28463 0.4432,2.23521 0.40706,3.04641 0.40706,5.33579 0,0 12.73847,-2.39876 12.71916,-12.32709 -0.024,-12.35789 -12.64184,-12.65042 -12.64184,-12.65042 z"
       id="path2-0"
       sodipodi:nodetypes="ccccsccscc" />
    <path
       style="fill:#24221c;stroke-width:0.292305"
       d="m 171.78177,160.62199 -0.20393,-29.07431 7.51578,0.20552 -0.87145,22.83512 c 0,0 4.56869,1.46384 4.86215,-2.31641 0.25055,-3.22748 -0.55785,-3.90238 -6.58683,-4.93653 0.4432,-1.66145 1.80306,-3.48592 1.80306,-5.18763 0,0 11.34247,1.78301 11.32316,9.16281 -0.024,9.18571 -12.64184,9.40315 -12.64184,9.40315 z"
       id="path2-4"
       sodipodi:nodetypes="ccccsccscc" />
    <path
       style="fill:#24221c;stroke-width:0.249246"
       d="m 56.006219,186.59859 0.81603,6.39948 c 0,0 9.502858,-5.83127 10.666278,0.71077 1.25778,7.07263 1.164272,9.72812 -0.737778,12.72308 -0.80831,1.27275 -4.532892,3.45603 -5.676057,0.84769 -2.390618,-5.45464 6.047269,-5.84611 7.916817,-4.10547 0.47177,-3.30461 -0.46795,-6.01369 -0.46795,-6.01369 0,0 -19.402675,-0.0967 -12.22874,12.55376 5.884868,10.37729 14.082399,-0.20005 14.082399,-0.20005 0,0 0.460258,1.45803 0.955855,2.01019 0.878052,0.97828 3.293251,2.16426 3.358435,2.06712 l 3.622656,-5.39879 c -1.91034,-1.21962 -2.201911,-1.07676 -3.334521,-3.14772 -2.58381,-5.3796 0.871116,-12.5262 -4.342374,-17.72466 -4.91356,-4.8994 -14.63105,-0.72171 -14.63105,-0.72171 z"
       id="path3"
       sodipodi:nodetypes="ccsssccscascssc" />
    <path
       style="fill:#24221c;stroke-width:0.250002"
       d="m 145.67966,185.50854 0.46703,6.34686 c 0,0 10.37536,-5.7752 11.53878,0.80657 1.25777,7.11559 1.16427,9.17646 -0.73779,12.1896 -0.8083,1.28049 -4.3431,3.29733 -6.1123,1.02893 -4.16366,-5.33848 5.841,-5.68644 7.82956,-3.69574 0.47178,-3.32468 -0.38069,-7.09722 -0.38069,-7.09722 0,0 -18.4782,-2.11485 -12.316,13.67701 3.37821,8.65734 14.19521,0.89724 14.19521,0.89724 0,0 0.88232,1.58032 1.5933,2.17859 0.71097,0.59827 2.61181,1.51199 2.66988,1.40996 l 3.31509,-5.82399 c -1.91034,-1.22703 -2.06264,-1.21364 -3.19525,-3.29718 -2.58381,-5.41227 1.32672,-12.66451 -3.88677,-17.89454 -4.91357,-4.92915 -14.98005,-0.72609 -14.98005,-0.72609 z"
       id="path3-1"
       sodipodi:nodetypes="ccsssccsczscssc" />
    <path
       style="fill:#24221c;stroke-width:0.250002"
       d="m 75.595783,86.838453 1.679764,6.10627 c 0,0.133403 8.762459,-3.972249 9.925873,1.29393 1.558762,7.055727 1.164266,9.787167 -0.737782,12.800307 -0.808294,1.28049 -4.779318,2.94833 -5.937762,0.33093 -2.740055,-6.19092 6.189962,-5.59919 8.17851,-3.60849 0.471777,-3.32468 -0.206186,-6.137455 -0.206186,-6.137455 0,0 -18.739888,-2.900091 -12.490436,12.717245 3.452572,8.62795 14.256833,0.58876 14.256833,0.58876 0,0 0.989054,1.71841 1.751871,2.31301 0.752024,0.58619 2.572145,1.21869 2.632855,1.1182 l 3.131802,-5.18367 c -1.910331,-1.22703 -2.305028,-1.53709 -3.437632,-3.62063 -2.583795,-5.41227 1.220114,-12.515508 -3.993346,-17.745539 -4.913543,-4.929152 -14.754364,-0.972868 -14.754364,-0.972868 z"
       id="path3-1-9"
       sodipodi:nodetypes="ccsssccscascssc" />
    <path
       style="fill:#24221c;stroke-width:0.250002"
       d="m 103.04179,133.33401 0.81603,6.6086 c 0,0 9.32836,-5.2517 10.49178,1.33008 1.25777,7.11558 1.51327,9.7872 -0.38879,12.80034 -0.8083,1.28049 -5.30285,2.94833 -6.4613,0.3309 -2.74007,-6.19091 6.539,-5.51194 8.52756,-3.52124 0.47178,-3.32468 -0.29344,-6.05022 -0.29344,-6.05022 0,0 -18.763992,-3.29073 -13.1885,11.58301 2.00408,5.34627 5.92207,5.01216 9.44104,4.77647 2.04914,-0.13725 5.07762,-3.48971 5.07762,-3.48971 0,0 0.43813,1.25637 2.2913,2.61812 1.12991,0.83028 3.50522,1.26313 3.59852,1.07485 l 3.00094,-6.05618 c -1.95396,-0.28909 -3.67923,-0.83909 -4.81184,-2.92263 -2.58381,-5.41227 1.74362,-13.1263 -3.46987,-18.35634 -4.91357,-4.92915 -14.63105,-0.72608 -14.63105,-0.72608 z"
       id="path3-1-9-2"
       sodipodi:nodetypes="ccsssccsacsscsscc" />
    <path
       style="fill:#24221c;stroke-width:0.250002"
       d="m 221.44942,234.55349 0.81603,6.6086 c 0,0 9.32836,-5.2517 10.49178,1.33008 1.25777,7.11558 1.51327,9.7872 -0.38879,12.80034 -0.8083,1.28049 -5.30285,2.94833 -6.4613,0.3309 -2.74007,-6.19091 6.539,-5.51194 8.52756,-3.52124 0.47178,-3.32468 -0.29344,-6.05022 -0.29344,-6.05022 0,0 -18.76401,-3.29073 -13.1885,11.58301 2.00408,5.34627 5.92207,5.01216 9.44104,4.77647 2.04914,-0.13725 5.07762,-3.48971 5.07762,-3.48971 0,0 0.43813,1.25637 2.2913,2.61812 1.12991,0.83028 3.50522,1.26313 3.59852,1.07485 l 3.00094,-6.05618 c -1.95396,-0.28909 -3.67923,-0.83909 -4.81184,-2.92263 -2.58381,-5.41227 1.74362,-13.1263 -3.46987,-18.35634 -4.91357,-4.92915 -14.63105,-0.72608 -14.63105,-0.72608 z"
       id="path3-1-9-2-1"
       sodipodi:nodetypes="ccsssccsacsscsscc" />
    <path
       style="fill:#24221c;stroke-width:0.256542"
       d="m 267.96747,244.23194 c -0.48951,3.37418 0.98926,5.30424 0.98926,5.30424 5.98018,0.27646 9.98443,-0.0573 15.68125,-1.68669 0,0 -0.34561,-6.2253 -1.79186,-9.99909 -2.07937,-5.42585 -6.16803,-5.62661 -9.86419,-5.26558 -3.4813,0.34003 -5.59361,1.71596 -8.19359,6.66722 -3.44954,6.56912 -1.48539,16.70674 2.15633,21.21691 5.09815,5.00252 14.35894,0.73688 14.35894,0.73688 l 3.21854,-1.88113 -1.59996,-5.87093 c 0,0 -12.07559,6.37494 -13.28271,-0.30482 -1.30502,-7.22151 -0.58771,-12.55518 2.52626,-14.38431 5.14417,-3.02164 6.10237,0.70154 7.38882,5.58619"
       id="path3-1-9-2-1-0"
       sodipodi:nodetypes="ccssasscccssc" />
    <path
       style="fill:#24221c;stroke-width:0.264583"
       d="m 79.262426,184.34095 -0.276725,28.40976 5.216699,0.19567 c 0,0 9.197129,0.35394 10.430833,-1.99542 6.735827,-12.82705 -12.034904,-13.42839 -12.034904,-13.42839 l -0.185087,4.35737 c 0,0 8.098962,2.17061 7.863206,4.66704 -0.235757,2.49643 -5.888968,1.2787 -5.888968,1.2787 l -0.297881,-17.8062 c 0,0 5.594575,-1.27269 5.620432,1.82712 0.04019,4.81757 -7.420169,2.40612 -7.420169,2.40612 l -0.12339,3.33154 c 0,0 13.538035,4.13367 13.230375,-6.41324 -0.202457,-6.9403 -11.996481,-6.54276 -11.996481,-6.54276 z"
       id="path4"
       sodipodi:nodetypes="cccscczccsccscc" />
    <path
       style="fill:#24221c;stroke-width:0.264583"
       d="m 98.427839,185.43029 5.861041,10e-6 -1.11051,20.60621 6.97157,-20.48282 7.03326,-0.18509 0.0617,27.331 -6.04615,-0.12339 0.0617,-16.84281 -5.79936,16.78112 h -7.896985 z"
       id="path5"
       sodipodi:nodetypes="ccccccccccc" />
    <path
       style="fill:#24221c;stroke-width:0.264583"
       d="m 355.10658,235.23384 5.86105,1e-5 -1.11051,20.60621 6.97157,-20.48282 7.03326,-0.18509 0.0617,27.331 -6.04615,-0.12339 0.0617,-16.84281 -5.79936,16.78112 h -7.897 z"
       id="path5-25"
       sodipodi:nodetypes="ccccccccccc" />
    <path
       style="fill:#24221c;stroke-width:0.275016"
       d="m 86.804868,19.294334 h 6.17401 l -1.16981,21.134813 7.34384,-21.008257 7.408812,-0.189838 0.065,28.032106 -6.36899,-0.126555 0.065,-17.274862 -6.109022,17.21159 h -8.31868 z"
       id="path5-2"
       sodipodi:nodetypes="ccccccccccc" />
    <path
       style="fill:#24221c;stroke-width:0.275016"
       d="m 57.748549,231.34993 h 6.17401 l -1.16981,21.13481 7.343841,-21.00826 7.40881,-0.18984 0.065,28.03211 -6.36899,-0.12656 0.065,-17.27486 -6.10902,17.21159 h -8.318681 z"
       id="path5-2-9"
       sodipodi:nodetypes="ccccccccccc" />
    <path
       style="fill:#24221c;stroke-width:0.275016"
       d="m 102.82783,231.80759 h 6.17401 l -1.16981,21.13481 7.34384,-21.00826 7.40881,-0.18984 0.065,28.03211 -6.36899,-0.12656 0.065,-17.27486 -6.10902,17.21159 h -8.31868 z"
       id="path5-2-9-4"
       sodipodi:nodetypes="ccccccccccc" />
    <path
       style="fill:#24221c;stroke-width:0.275016"
       d="m 109.35077,19.195955 h 6.174 l -0.47093,10.870145 7.08862,-0.239459 -0.44366,-10.50413 7.40881,-0.189838 0.065,28.032108 -6.36899,-0.126557 -0.0127,-10.48207 -7.71366,-0.526739 0.2069,11.096489 -6.84328,-0.150952 z"
       id="path5-2-2"
       sodipodi:nodetypes="ccccccccccccc" />
    <path
       style="fill:#24221c;stroke-width:0.275016"
       d="m 51.413526,85.608766 h 6.174 l -0.47093,10.870125 7.08862,-0.239457 -0.44366,-10.504108 7.40881,-0.18984 0.065,28.032064 -6.36899,-0.12656 -0.0127,-10.48207 -7.71366,-0.52674 0.2069,11.09649 -6.84328,-0.15095 z"
       id="path5-2-2-1"
       sodipodi:nodetypes="ccccccccccccc" />
    <path
       style="fill:#24221c;stroke-width:0.275016"
       d="m 57.873492,131.811 h 6.174 l -0.47093,10.87016 7.08862,-0.23946 -0.44366,-10.50414 7.40881,-0.18984 0.065,28.03212 -6.36899,-0.12656 -0.0127,-10.48207 -7.71366,-0.52674 0.2069,11.09649 -6.84328,-0.15095 z"
       id="path5-2-2-1-1"
       sodipodi:nodetypes="ccccccccccccc" />
    <path
       style="fill:#24221c;stroke-width:0.275016"
       d="m 33.488592,231.26076 h 6.174 l -0.47093,10.87016 7.08862,-0.23946 -0.44366,-10.50414 7.40881,-0.18984 0.065,28.03212 -6.36899,-0.12656 -0.0127,-10.48207 -7.71366,-0.52674 0.2069,11.09649 -6.84328,-0.15095 z"
       id="path5-2-2-1-1-2"
       sodipodi:nodetypes="ccccccccccccc" />
    <path
       style="fill:#24221c;stroke-width:0.275016"
       d="m 132.3471,19.237942 h 6.174 l -1.1698,21.134812 7.34383,-21.008257 7.40881,-0.189838 0.065,28.032107 -6.36899,-0.126555 0.065,-17.274863 -6.10902,17.21159 h -8.31868 z"
       id="path5-2-6"
       sodipodi:nodetypes="ccccccccccc" />
    <path
       style="fill:#24221c;stroke-width:0.110261"
       d="m 45.099711,50.209106 5.304697,0.207355"
       id="path6" />
    <path
       style="fill:#24221c;stroke-width:0.264583"
       d="m 119.43984,206.83855 -0.37018,6.90987 c 0,0 8.98903,-0.88644 11.66041,-4.01019 4.0587,-4.74602 3.26985,-18.44689 3.26985,-18.44689 l 2.32068,-0.24678 0.349,21.91241 6.708,0.0511 -1.11052,-28.25643 -14.99013,0.39754 c 0,0 2.10693,13.68266 -1.51811,18.83272 -1.33052,1.89025 -6.319,2.85664 -6.319,2.85664 z"
       id="path7"
       sodipodi:nodetypes="ccaccccccac" />
    <path
       style="fill:#24221c;stroke-width:0.097108"
       d="m 39.934083,19.536664 0.720226,-6.975083 -25.832514,-0.817347 0.64937,36.171381 c 0,0 26.188241,2.906256 26.650655,-8.657165 C 42.937476,18.861629 21.773139,26.046009 21.773139,26.046009 l 0.09003,7.289869 c 0,0 13.294169,-7.065017 13.514425,4.234023 0.109242,5.604104 -13.24434,3.511463 -13.24434,3.511463 0,0 0.01237,-22.122736 -0.527794,-22.122736 4.891087,0.266228 13.431885,0.578036 18.328625,0.578036 z"
       id="path8"
       sodipodi:nodetypes="ccccsccscsc" />
    <path
       style="fill:#24221c;stroke-width:0.110261"
       d="m 38.390089,21.624664 7.108913,-2.147481 6.399586,14.539601 4.91099,-14.872608 6.61367,2.403438 -15.381604,40.773135 -7.533067,-2.299794 7.260419,-18.101469 z"
       id="path9"
       sodipodi:nodetypes="ccccccccc" />
    <path
       style="fill:#24221c;stroke-width:0.110261"
       d="m 64.196848,47.975785 -0.01105,-28.781415 6.435071,-0.146623 0.22233,9.245931 6.014912,-9.720917 6.305597,2.026064 -8.037789,11.565229 10.345988,9.949485 -4.599656,5.677445 -9.959163,-10.839574 0.25583,10.617475 z"
       id="path10"
       sodipodi:nodetypes="cccccccccccc" />
    <path
       style="fill:#24221c;stroke-width:0.110261"
       d="m 127.20198,161.14008 -0.011,-28.78141 6.43507,-0.14662 0.22233,9.24593 6.01491,-9.72092 6.3056,2.02606 -8.03779,11.56523 10.34599,9.94949 -4.59966,5.67744 -9.95916,-10.83957 0.25583,10.61747 z"
       id="path10-0"
       sodipodi:nodetypes="cccccccccccc" />
    <path
       style="fill:#24221c;stroke-width:0.110261"
       d="m 197.91998,262.21835 -0.011,-28.78141 6.43507,-0.14662 0.22233,9.24593 6.01491,-9.72092 6.3056,2.02606 -8.03779,11.56523 10.34599,9.94949 -4.59966,5.67744 -9.95916,-10.83957 0.25583,10.61747 z"
       id="path10-0-4"
       sodipodi:nodetypes="cccccccccccc" />
    <path
       style="fill:#24221c;stroke-width:0.110261"
       d="m 8.2657702,159.76674 -0.9981734,-35.5679 7.4221932,-0.14662 0.22233,12.33069 7.618989,-13.29924 6.675769,2.8898 -10.012038,14.65 12.813799,14.51493 -5.46339,4.81371 -11.686631,-14.29451 0.379221,13.70224 z"
       id="path10-1"
       sodipodi:nodetypes="cccccccccccc" />
    <path
       style="fill:#24221c;stroke-width:0.110261"
       d="m 8.3911556,262.07507 -0.998174,-35.5679 7.4221954,-0.14662 0.22233,12.33069 7.618989,-13.29924 6.675769,2.8898 -10.012038,14.65 12.813799,14.51493 -5.46339,4.81371 -11.686631,-14.29451 0.379221,13.70224 z"
       id="path10-1-6"
       sodipodi:nodetypes="cccccccccccc" />
    <path
       style="fill:#24221c;stroke-width:0.164158"
       d="m 173.72702,19.076957 -1.09818,6.938001 c 0,0 -12.10674,-4.830815 -11.91517,6.671156 0.20557,12.34245 13.23298,7.204848 13.23298,7.204848 l 1.3178,6.831264 c 0,0 -20.76997,6.523519 -21.08491,-13.128835 -0.35481,-22.1397 19.54748,-14.516434 19.54748,-14.516434 z"
       id="path11"
       sodipodi:nodetypes="ccsccsc" />
    <path
       style="fill:#24221c;stroke-width:0.164158"
       d="m 116.32377,85.597479 -1.09818,6.937996 c 0,0 -12.10674,-4.83081 -11.91517,6.671121 0.20557,12.342444 13.23298,7.204844 13.23298,7.204844 l 1.3178,6.83126 c 0,0 -20.769952,6.52352 -21.084889,-13.12883 -0.35481,-22.139657 19.547459,-14.516391 19.547459,-14.516391 z"
       id="path11-2"
       sodipodi:nodetypes="ccsccsc" />
    <path
       style="fill:#24221c;stroke-width:0.164158"
       d="m 175.16016,18.227759 0.46591,6.51641 7.38993,-0.338529 -0.94288,23.497638 h 8.12648 l -1.16251,-23.661538 8.28178,-0.325579 -0.295,-6.21451 z"
       id="path12"
       sodipodi:nodetypes="ccccccccc" />
    <path
       style="fill:#24221c;stroke-width:0.164158"
       d="m 80.84017,231.39081 -0.244878,28.90716 h 8.12648 l -0.900759,-22.96354 13.604047,0.0234 -0.1205,-6.73801 c -7.569663,0.0841 -9.677056,0.40811 -20.46439,0.77097 z"
       id="path12-6"
       sodipodi:nodetypes="ccccccc" />
    <path
       style="fill:#24221c;stroke-width:0.164158"
       d="m 287.25801,233.44059 -0.24488,28.90716 h 8.12648 l -0.90076,-22.96354 13.60405,0.0234 -0.1205,-6.73801 c -7.56967,0.0841 -9.67706,0.40811 -20.46439,0.77097 z"
       id="path12-6-3"
       sodipodi:nodetypes="ccccccc" />
    <path
       style="fill:#24221c;stroke-width:0.164158"
       d="m 79.56582,132.29094 0.46591,6.51641 7.389892,-0.33853 -0.942874,23.49764 h 8.126435 l -1.162504,-23.66154 8.281741,-0.32558 -0.295,-6.21451 z"
       id="path12-0"
       sodipodi:nodetypes="ccccccccc" />
    <path
       style="fill:#24221c;stroke-width:0.164158"
       d="m 240.78858,233.12218 0.46591,6.51641 7.38989,-0.33853 -0.94287,23.49764 h 8.12645 l -1.16251,-23.66154 8.28178,-0.32558 -0.295,-6.21451 z"
       id="path12-0-17"
       sodipodi:nodetypes="ccccccccc" />
    <path
       style="fill:#24221c;stroke-width:0.180858"
       d="m 192.87395,131.29871 -0.94288,28.52161 h 8.12648 l -0.46451,-28.54605 c -3.01875,0.1533 -4.16659,-0.0994 -6.71909,0.0244 z"
       id="path12-0-6"
       sodipodi:nodetypes="ccccc" />
    <path
       style="fill:#24221c;stroke-width:0.164158"
       d="m 146.75476,131.65225 0.46591,6.51641 7.38993,-0.33853 -0.94288,23.49764 h 8.12648 l -1.16251,-23.66154 8.28178,-0.32558 -0.295,-6.21451 z"
       id="path12-0-1"
       sodipodi:nodetypes="ccccccccc" />
    <path
       style="fill:#24221c;stroke-width:0.201987"
       d="m 22.097533,76.017515 -0.401073,7.113839 c -3.790958,1.003515 -8.603986,5.000164 -7.86456,14.068984 0.513283,6.295272 6.126737,12.115642 11.568419,11.219452 8.097601,-1.33359 8.648209,-13.122213 5.735807,-19.299787 -2.912402,-6.177619 -9.472759,-6.086174 -9.472759,-6.086174 l 0.375384,-7.226777 C 43.239214,76.354312 46.962854,115.38338 24.720927,115.3272 14.971309,114.96751 7.4855025,108.22628 7.1021478,96.378341 6.7310311,84.908646 13.594384,78.016522 22.097533,76.017515 Z"
       id="path13"
       sodipodi:nodetypes="ccssscccsc" />
    <path
       style="fill:#24221c;stroke-width:0.152298"
       d="m 40.029948,130.32458 0.29541,7.23392 c -5.829995,1.48391 -4.999352,16.24496 3.36924,14.91975 6.226522,-0.98601 6.526513,-7.60438 4.287068,-12.17184 -2.239446,-4.56747 -7.710402,-3.00792 -7.710402,-3.00792 l -0.272005,-6.83511 c 18.029229,-3.05031 20.275508,29.2611 3.172932,29.21956 -14.993629,-0.53188 -16.218966,-26.4024 -3.142243,-29.35836 z"
       id="path13-2"
       sodipodi:nodetypes="ccsscccc" />
    <path
       style="fill:#24221c;stroke-width:0.152298"
       d="m 171.13787,232.6944 0.29541,7.23392 c -5.82999,1.48391 -4.99935,16.24496 3.36924,14.91975 6.22653,-0.98601 6.52652,-7.60438 4.28707,-12.17184 -2.23944,-4.56747 -7.7104,-3.00792 -7.7104,-3.00792 l -0.27201,-6.83511 c 18.02923,-3.05031 20.27551,29.2611 3.17294,29.21956 -14.99363,-0.53188 -16.21897,-26.4024 -3.14225,-29.35836 z"
       id="path13-2-1"
       sodipodi:nodetypes="ccsscccc" />
    <path
       style="fill:#24221c;stroke-width:0.152298"
       d="m 316.72443,233.12315 0.29541,7.23392 c -5.82999,1.48391 -4.99935,16.24496 3.36924,14.91975 6.22653,-0.98601 6.52652,-7.60438 4.28707,-12.17184 -2.23944,-4.56747 -7.7104,-3.00792 -7.7104,-3.00792 l -0.27201,-6.83511 c 18.02923,-3.05031 20.27551,29.2611 3.17294,29.21956 -14.99363,-0.53188 -16.21897,-26.4024 -3.14225,-29.35836 z"
       id="path13-2-1-1"
       sodipodi:nodetypes="ccsscccc" />
    <path
       style="fill:#24221c;stroke-width:0.264583"
       d="m 401.50318,263.49588 v -28.26909 l 7.15452,0.5235 7.85252,15.53055 4.53702,-16.22855 9.07404,0.5235 3.31549,27.92009 -6.63101,1.22151 -2.094,-17.79906 -4.36252,15.53055 -5.40954,-0.0872 -7.24176,-14.30905 0.87252,15.44331 z"
       id="path14"
       sodipodi:nodetypes="cccccccccccccc" />
  </g>
</svg>
