<?xml version="1.0" encoding="UTF-8" standalone="no"?>
<!-- Created with Inkscape (http://www.inkscape.org/) -->

<svg
   width="210mm"
   height="297mm"
   viewBox="0 0 210 297"
   version="1.1"
   id="svg1"
   inkscape:version="1.4.2 (f4327f4, 2025-05-13)"
   sodipodi:docname="letters.svg"
   xmlns:inkscape="http://www.inkscape.org/namespaces/inkscape"
   xmlns:sodipodi="http://sodipodi.sourceforge.net/DTD/sodipodi-0.dtd"
   xmlns="http://www.w3.org/2000/svg"
   xmlns:svg="http://www.w3.org/2000/svg">
  <sodipodi:namedview
     id="namedview1"
     pagecolor="#ffffff"
     bordercolor="#000000"
     borderopacity="0.25"
     inkscape:showpageshadow="2"
     inkscape:pageopacity="0.0"
     inkscape:pagecheckerboard="0"
     inkscape:deskcolor="#d1d1d1"
     inkscape:document-units="mm"
     showguides="true"
     inkscape:zoom="0.37905794"
     inkscape:cx="969.50878"
     inkscape:cy="776.92608"
     inkscape:window-width="1920"
     inkscape:window-height="1111"
     inkscape:window-x="-9"
     inkscape:window-y="-9"
     inkscape:window-maximized="1"
     inkscape:current-layer="layer1">
    <sodipodi:guide
       position="-27.222091,224.40776"
       orientation="0,-1"
       id="guide14"
       inkscape:locked="false" />
    <sodipodi:guide
       position="-36.296121,185.31963"
       orientation="0,-1"
       id="guide15"
       inkscape:locked="false" />
  </sodipodi:namedview>
  <defs
     id="defs1" />
  <g
     inkscape:label="Слой 1"
     inkscape:groupmode="layer"
     id="layer1">
    <path
       style="fill:#24221c;stroke-width:0.264583"
       d="m 19.575447,224.05351 25.12809,-0.349 0.0617,39.15164 -7.91422,-0.2556 1.2215,-32.09057 -11.21733,0.39134 -0.6856,32.07635 c 0,0 -3.06661,0.21171 -8.36332,-0.22379 0.92543,-7.67803 1.76919,-38.70042 1.76919,-38.70042 z"
       id="path1"
       sodipodi:nodetypes="cccccccccc" />
    <path
       style="fill:#24221c;stroke-width:0.244677"
       d="m 170.89755,284.14224 0.71898,27.93306 -6.68223,-0.54821 -0.72061,-20.01632 -9.67144,-0.39007 0.40449,21.07053 c 0,0 -2.74902,0.20197 -7.49717,-0.21349 0.82959,-7.32473 0.47984,-28.67974 0.47984,-28.67974 8.30493,0.29636 15.20648,0.48473 22.96814,0.84424 z"
       id="path1-3"
       sodipodi:nodetypes="ccccccccc" />
    <path
       style="fill:#24221c;stroke-width:0.339041"
       d="m 46.810107,235.94202 -0.55293,39.2893 7.34128,0.0725 -0.52244,-32.25636 c 0,0 6.31369,-0.43396 6.60715,4.65176 0.25055,4.34205 -1.08135,5.67186 -7.11033,7.06313 0.4432,2.23521 0.40706,4.26791 0.40706,6.55729 0,0 12.73847,-2.39876 12.71916,-12.32709 -0.024,-12.35789 -12.64184,-12.65042 -12.64184,-12.65042 z"
       id="path2"
       sodipodi:nodetypes="ccccsccscc" />
    <path
       style="fill:#24221c;stroke-width:0.313152"
       d="m 408.67492,285.8719 0.23112,29.44343 -6.73796,-0.20813 0.74334,-24.03262 c 0,0 -7.84187,-0.57482 -8.17446,3.25342 -0.28396,3.26845 1.58616,3.11634 8.41899,4.16361 -0.50229,1.68255 -0.28684,3.88748 -0.28684,5.61079 0,0 -8.31499,11.79585 -14.02123,10.52992 -1.66144,-0.36859 -2.40291,-4.50466 -2.40291,-4.50466 3.65301,0 11.02835,-7.10667 11.02835,-7.10667 0,0 -8.06493,1.9142 -8.23396,-8.24295 -0.15479,-9.30107 13.54213,-8.99902 13.54213,-8.99902 z"
       id="path2-8"
       sodipodi:nodetypes="ccccsccaccscc" />
    <path
       style="fill:#24221c;stroke-width:0.339041"
       d="m 344.58588,284.78685 -0.20393,39.1148 5.94528,-0.2765 -0.34794,-33.30336 c 0,0 7.5352,0.61304 7.82866,5.69876 0.25055,4.34205 -2.47736,6.89336 -8.50634,8.28463 0.4432,2.23521 0.40706,3.04641 0.40706,5.33579 0,0 12.73847,-2.39876 12.71916,-12.32709 -0.024,-12.35789 -12.64184,-12.65042 -12.64184,-12.65042 z"
       id="path2-0"
       sodipodi:nodetypes="ccccsccscc" />
    <path
       style="fill:#24221c;stroke-width:0.292305"
       d="m 182.25181,212.27417 -0.20393,-29.07431 7.51578,0.20552 -0.87145,22.83512 c 0,0 4.56869,1.46384 4.86215,-2.31641 0.25055,-3.22748 -0.55785,-3.90238 -6.58683,-4.93653 0.4432,-1.66145 1.80306,-3.48592 1.80306,-5.18763 0,0 11.34247,1.78301 11.32316,9.16281 -0.024,9.18571 -12.64184,9.40315 -12.64184,9.40315 z"
       id="path2-4"
       sodipodi:nodetypes="ccccsccscc" />
    <path
       style="fill:#24221c;stroke-width:0.249246"
       d="m 66.476257,238.25077 0.81603,6.39948 c 0,0 9.50285,-5.83127 10.66627,0.71077 1.25778,7.07263 1.16428,9.72812 -0.73777,12.72308 -0.80831,1.27275 -4.5329,3.45603 -5.67606,0.84769 -2.39062,-5.45464 6.04727,-5.84611 7.91682,-4.10547 0.47177,-3.30461 -0.46795,-6.01369 -0.46795,-6.01369 0,0 -19.40268,-0.0967 -12.22874,12.55376 5.88486,10.37729 14.0824,-0.20005 14.0824,-0.20005 0,0 0.46025,1.45803 0.95585,2.01019 0.87805,0.97828 3.29325,2.16426 3.35844,2.06712 l 3.62265,-5.39879 c -1.91034,-1.21962 -2.20191,-1.07676 -3.33452,-3.14772 -2.58381,-5.3796 0.87112,-12.5262 -4.34237,-17.72466 -4.91356,-4.8994 -14.63105,-0.72171 -14.63105,-0.72171 z"
       id="path3"
       sodipodi:nodetypes="ccsssccscascssc" />
    <path
       style="fill:#24221c;stroke-width:0.250002"
       d="m 156.1497,237.16072 0.46703,6.34686 c 0,0 10.37536,-5.7752 11.53878,0.80657 1.25777,7.11559 1.16427,9.17646 -0.73779,12.1896 -0.8083,1.28049 -4.3431,3.29733 -6.1123,1.02893 -4.16366,-5.33848 5.841,-5.68644 7.82956,-3.69574 0.47178,-3.32468 -0.38069,-7.09722 -0.38069,-7.09722 0,0 -18.4782,-2.11485 -12.316,13.67701 3.37821,8.65734 14.19521,0.89724 14.19521,0.89724 0,0 0.88232,1.58032 1.5933,2.17859 0.71097,0.59827 2.61181,1.51199 2.66988,1.40996 l 3.31509,-5.82399 c -1.91034,-1.22703 -2.06264,-1.21364 -3.19525,-3.29718 -2.58381,-5.41227 1.32672,-12.66451 -3.88677,-17.89454 -4.91357,-4.92915 -14.98005,-0.72609 -14.98005,-0.72609 z"
       id="path3-1"
       sodipodi:nodetypes="ccsssccsczscssc" />
    <path
       style="fill:#24221c;stroke-width:0.250002"
       d="m 86.065817,138.49063 1.67976,6.10627 c 0,0.1334 8.76246,-3.97225 9.92588,1.29393 1.55876,7.05572 1.16426,9.78716 -0.73778,12.80031 -0.8083,1.28049 -4.77932,2.94833 -5.93777,0.33093 -2.74005,-6.19093 6.18997,-5.5992 8.17851,-3.6085 0.47178,-3.32468 -0.20618,-6.13745 -0.20618,-6.13745 0,0 -18.73989,-2.90009 -12.49044,12.71725 3.45257,8.62795 14.256833,0.58876 14.256833,0.58876 0,0 0.98906,1.71841 1.75188,2.31301 0.75202,0.58619 2.57214,1.21869 2.63285,1.1182 l 3.1318,-5.18367 c -1.91033,-1.22703 -2.30503,-1.53709 -3.43763,-3.62063 -2.58379,-5.41228 1.22011,-12.51551 -3.99335,-17.74555 -4.913543,-4.92915 -14.754363,-0.97286 -14.754363,-0.97286 z"
       id="path3-1-9"
       sodipodi:nodetypes="ccsssccscascssc" />
    <path
       style="fill:#24221c;stroke-width:0.250002"
       d="m 113.51183,184.98619 0.81603,6.6086 c 0,0 9.32836,-5.2517 10.49178,1.33008 1.25777,7.11558 1.51327,9.7872 -0.38879,12.80034 -0.8083,1.28049 -5.30285,2.94833 -6.4613,0.3309 -2.74007,-6.19091 6.539,-5.51194 8.52756,-3.52124 0.47178,-3.32468 -0.29344,-6.05022 -0.29344,-6.05022 0,0 -18.76399,-3.29073 -13.1885,11.58301 2.00408,5.34627 5.92207,5.01216 9.44104,4.77647 2.04914,-0.13725 5.07762,-3.48971 5.07762,-3.48971 0,0 0.43813,1.25637 2.2913,2.61812 1.12991,0.83028 3.50522,1.26313 3.59852,1.07485 l 3.00094,-6.05618 c -1.95396,-0.28909 -3.67923,-0.83909 -4.81184,-2.92263 -2.58381,-5.41227 1.74362,-13.1263 -3.46987,-18.35634 -4.91357,-4.92915 -14.63105,-0.72608 -14.63105,-0.72608 z"
       id="path3-1-9-2"
       sodipodi:nodetypes="ccsssccsacsscsscc" />
    <path
       style="fill:#24221c;stroke-width:0.250002"
       d="m 231.91946,286.20567 0.81603,6.6086 c 0,0 9.32836,-5.2517 10.49178,1.33008 1.25777,7.11558 1.51327,9.7872 -0.38879,12.80034 -0.8083,1.28049 -5.30285,2.94833 -6.4613,0.3309 -2.74007,-6.19091 6.539,-5.51194 8.52756,-3.52124 0.47178,-3.32468 -0.29344,-6.05022 -0.29344,-6.05022 0,0 -18.76401,-3.29073 -13.1885,11.58301 2.00408,5.34627 5.92207,5.01216 9.44104,4.77647 2.04914,-0.13725 5.07762,-3.48971 5.07762,-3.48971 0,0 0.43813,1.25637 2.2913,2.61812 1.12991,0.83028 3.50522,1.26313 3.59852,1.07485 l 3.00094,-6.05618 c -1.95396,-0.28909 -3.67923,-0.83909 -4.81184,-2.92263 -2.58381,-5.41227 1.74362,-13.1263 -3.46987,-18.35634 -4.91357,-4.92915 -14.63105,-0.72608 -14.63105,-0.72608 z"
       id="path3-1-9-2-1"
       sodipodi:nodetypes="ccsssccsacsscsscc" />
    <path
       style="fill:#24221c;stroke-width:0.256542"
       d="m 278.43751,295.88412 c -0.48951,3.37418 0.98926,5.30424 0.98926,5.30424 5.98018,0.27646 9.98443,-0.0573 15.68125,-1.68669 0,0 -0.34561,-6.2253 -1.79186,-9.99909 -2.07937,-5.42585 -6.16803,-5.62661 -9.86419,-5.26558 -3.4813,0.34003 -5.59361,1.71596 -8.19359,6.66722 -3.44954,6.56912 -1.48539,16.70674 2.15633,21.21691 5.09815,5.00252 14.35894,0.73688 14.35894,0.73688 l 3.21854,-1.88113 -1.59996,-5.87093 c 0,0 -12.07559,6.37494 -13.28271,-0.30482 -1.30502,-7.22151 -0.58771,-12.55518 2.52626,-14.38431 5.14417,-3.02164 6.10237,0.70154 7.38882,5.58619"
       id="path3-1-9-2-1-0"
       sodipodi:nodetypes="ccssasscccssc" />
    <path
       style="fill:#24221c;stroke-width:0.264583"
       d="m 89.732457,235.99313 -0.27672,28.40976 5.2167,0.19567 c 0,0 9.197133,0.35394 10.430833,-1.99542 6.73583,-12.82705 -12.034903,-13.42839 -12.034903,-13.42839 l -0.18509,4.35737 c 0,0 8.098963,2.17061 7.863213,4.66704 -0.23576,2.49643 -5.888973,1.2787 -5.888973,1.2787 l -0.29788,-17.8062 c 0,0 5.594573,-1.27269 5.620433,1.82712 0.0402,4.81757 -7.420173,2.40612 -7.420173,2.40612 l -0.12339,3.33154 c 0,0 13.538033,4.13367 13.230373,-6.41324 -0.20245,-6.9403 -11.996483,-6.54276 -11.996483,-6.54276 z"
       id="path4"
       sodipodi:nodetypes="cccscczccsccscc" />
    <path
       style="fill:#24221c;stroke-width:0.264583"
       d="m 108.89788,237.08247 5.86104,1e-5 -1.11051,20.60621 6.97157,-20.48282 7.03326,-0.18509 0.0617,27.331 -6.04615,-0.12339 0.0617,-16.84281 -5.79936,16.78112 h -7.89699 z"
       id="path5"
       sodipodi:nodetypes="ccccccccccc" />
    <path
       style="fill:#24221c;stroke-width:0.264583"
       d="m 365.57662,286.88602 5.86105,1e-5 -1.11051,20.60621 6.97157,-20.48282 7.03326,-0.18509 0.0617,27.331 -6.04615,-0.12339 0.0617,-16.84281 -5.79936,16.78112 h -7.897 z"
       id="path5-25"
       sodipodi:nodetypes="ccccccccccc" />
    <path
       style="fill:#24221c;stroke-width:0.275016"
       d="m 86.804868,19.294334 h 6.17401 l -1.16981,21.134813 7.34384,-21.008257 7.408812,-0.189838 0.065,28.032106 -6.36899,-0.126555 0.065,-17.274862 -6.109022,17.21159 h -8.31868 z"
       id="path5-2"
       sodipodi:nodetypes="ccccccccccc" />
    <path
       style="fill:#24221c;stroke-width:0.275016"
       d="m 68.747747,283.00211 h 6.17401 l -1.16981,21.13481 7.34384,-21.00826 7.40881,-0.18984 0.065,28.03211 -6.36899,-0.12656 0.065,-17.27486 -6.10902,17.21159 h -8.31868 z"
       id="path5-2-9"
       sodipodi:nodetypes="ccccccccccc" />
    <path
       style="fill:#24221c;stroke-width:0.275016"
       d="m 114.35621,283.45977 h 6.17401 l -1.16981,21.13481 7.34384,-21.00826 7.40881,-0.18984 0.065,28.03211 -6.36899,-0.12656 0.065,-17.27486 -6.10902,17.21159 h -8.31868 z"
       id="path5-2-9-4"
       sodipodi:nodetypes="ccccccccccc" />
    <path
       style="fill:#24221c;stroke-width:0.275016"
       d="m 109.35077,19.195955 h 6.174 l -0.47093,10.870145 7.08862,-0.239459 -0.44366,-10.50413 7.40881,-0.189838 0.065,28.032108 -6.36899,-0.126557 -0.0127,-10.48207 -7.71366,-0.526739 0.2069,11.096489 -6.84328,-0.150952 z"
       id="path5-2-2"
       sodipodi:nodetypes="ccccccccccccc" />
    <path
       style="fill:#24221c;stroke-width:0.275016"
       d="m 61.883557,137.26094 h 6.174 l -0.47093,10.87012 7.08862,-0.23945 -0.44366,-10.50411 7.40881,-0.18984 0.065,28.03207 -6.36899,-0.12656 -0.0127,-10.48208 -7.71366,-0.52674 0.2069,11.0965 -6.84328,-0.15095 z"
       id="path5-2-2-1"
       sodipodi:nodetypes="ccccccccccccc" />
    <path
       style="fill:#24221c;stroke-width:0.275016"
       d="m 68.343527,183.46318 h 6.174 l -0.47093,10.87016 7.08862,-0.23946 -0.44366,-10.50414 7.40881,-0.18984 0.065,28.03212 -6.36899,-0.12656 -0.0127,-10.48207 -7.71366,-0.52674 0.2069,11.09649 -6.84328,-0.15095 z"
       id="path5-2-2-1-1"
       sodipodi:nodetypes="ccccccccccccc" />
    <path
       style="fill:#24221c;stroke-width:0.275016"
       d="m 45.016957,282.91294 h 6.174 l -0.47093,10.87016 7.08862,-0.23946 -0.44366,-10.50414 7.40881,-0.18984 0.065,28.03212 -6.36899,-0.12656 -0.0127,-10.48207 -7.71366,-0.52674 0.2069,11.09649 -6.84328,-0.15095 z"
       id="path5-2-2-1-1-2"
       sodipodi:nodetypes="ccccccccccccc" />
    <path
       style="fill:#24221c;stroke-width:0.275016"
       d="m 132.3471,19.237942 h 6.174 l -1.1698,21.134812 7.34383,-21.008257 7.40881,-0.189838 0.065,28.032107 -6.36899,-0.126555 0.065,-17.274863 -6.10902,17.21159 h -8.31868 z"
       id="path5-2-6"
       sodipodi:nodetypes="ccccccccccc" />
    <path
       style="fill:#24221c;stroke-width:0.110261"
       d="m 45.099711,50.209106 5.304697,0.207355"
       id="path6" />
    <path
       style="fill:#24221c;stroke-width:0.264583"
       d="m 129.90988,258.49073 -0.37018,6.90987 c 0,0 8.98903,-0.88644 11.66041,-4.01019 4.0587,-4.74602 3.26985,-18.44689 3.26985,-18.44689 l 2.32068,-0.24678 0.349,21.91241 6.708,0.0511 -1.11052,-28.25643 -14.99013,0.39754 c 0,0 2.10693,13.68266 -1.51811,18.83272 -1.33052,1.89025 -6.319,2.85664 -6.319,2.85664 z"
       id="path7"
       sodipodi:nodetypes="ccaccccccac" />
    <path
       style="fill:#24221c;stroke-width:0.097108"
       d="M 37.142074,23.899179 37.8623,16.924096 12.029786,16.106749 12.679156,52.27813 c 0,0 26.188241,2.906256 26.650655,-8.657165 C 40.145467,23.224144 18.98113,30.408524 18.98113,30.408524 l 0.09003,7.289869 c 0,0 13.294169,-7.065017 13.514425,4.234023 0.109242,5.604104 -13.24434,3.511463 -13.24434,3.511463 0,0 0.01237,-22.122736 -0.527794,-22.122736 4.891087,0.266228 13.431885,0.578036 18.328625,0.578036 z"
       id="path8"
       sodipodi:nodetypes="ccccsccscsc" />
    <path
       style="fill:#24221c;stroke-width:0.110261"
       d="m 38.390089,21.624664 7.108913,-2.147481 6.399586,14.539601 4.91099,-14.872608 6.61367,2.403438 -15.381604,40.773135 -7.533067,-2.299794 7.260419,-18.101469 z"
       id="path9"
       sodipodi:nodetypes="ccccccccc" />
    <path
       style="fill:#24221c;stroke-width:0.110261"
       d="m 64.196848,47.975785 -0.01105,-28.781415 6.435071,-0.146623 0.22233,9.245931 6.014912,-9.720917 6.305597,2.026064 -8.037789,11.565229 10.345988,9.949485 -4.599656,5.677445 -9.959163,-10.839574 0.25583,10.617475 z"
       id="path10"
       sodipodi:nodetypes="cccccccccccc" />
    <path
       style="fill:#24221c;stroke-width:0.110261"
       d="m 137.67202,212.79226 -0.011,-28.78141 6.43507,-0.14662 0.22233,9.24593 6.01491,-9.72092 6.3056,2.02606 -8.03779,11.56523 10.34599,9.94949 -4.59966,5.67744 -9.95916,-10.83957 0.25583,10.61747 z"
       id="path10-0"
       sodipodi:nodetypes="cccccccccccc" />
    <path
       style="fill:#24221c;stroke-width:0.110261"
       d="m 208.39002,313.87053 -0.011,-28.78141 6.43507,-0.14662 0.22233,9.24593 6.01491,-9.72092 6.3056,2.02606 -8.03779,11.56523 10.34599,9.94949 -4.59966,5.67744 -9.95916,-10.83957 0.25583,10.61747 z"
       id="path10-0-4"
       sodipodi:nodetypes="cccccccccccc" />
    <path
       style="fill:#24221c;stroke-width:0.110261"
       d="m 18.735807,211.41892 -0.99818,-35.5679 7.4222,-0.14662 0.22233,12.33069 7.61899,-13.29924 6.67577,2.8898 -10.01204,14.65 12.8138,14.51493 -5.46339,4.81371 -11.68663,-14.29451 0.37922,13.70224 z"
       id="path10-1"
       sodipodi:nodetypes="cccccccccccc" />
    <path
       style="fill:#24221c;stroke-width:0.110261"
       d="m 18.861187,312.66891 -0.99817,-35.5679 7.42219,-0.14662 0.22233,12.33069 7.61899,-13.29924 6.67577,2.8898 -10.01204,14.65 12.8138,14.51493 -5.46339,4.81371 -11.68663,-14.29451 0.37922,13.70224 z"
       id="path10-1-6"
       sodipodi:nodetypes="cccccccccccc" />
    <path
       style="fill:#24221c;stroke-width:0.164158"
       d="m 173.72702,19.076957 -1.09818,6.938001 c 0,0 -12.10674,-4.830815 -11.91517,6.671156 0.20557,12.34245 13.23298,7.204848 13.23298,7.204848 l 1.3178,6.831264 c 0,0 -20.76997,6.523519 -21.08491,-13.128835 -0.35481,-22.1397 19.54748,-14.516434 19.54748,-14.516434 z"
       id="path11"
       sodipodi:nodetypes="ccsccsc" />
    <path
       style="fill:#24221c;stroke-width:0.164158"
       d="m 126.79381,137.24965 -1.09818,6.938 c 0,0 -12.10674,-4.83081 -11.91517,6.67112 0.20557,12.34245 13.23298,7.20485 13.23298,7.20485 l 1.3178,6.83126 c 0,0 -20.76995,6.52352 -21.08489,-13.12884 -0.35481,-22.13965 19.54746,-14.51639 19.54746,-14.51639 z"
       id="path11-2"
       sodipodi:nodetypes="ccsccsc" />
    <path
       style="fill:#24221c;stroke-width:0.164158"
       d="m 175.16016,18.227759 0.46591,6.51641 7.38993,-0.338529 -0.94288,23.497638 h 8.12648 l -1.16251,-23.661538 8.28178,-0.325579 -0.295,-6.21451 z"
       id="path12"
       sodipodi:nodetypes="ccccccccc" />
    <path
       style="fill:#24221c;stroke-width:0.164158"
       d="m 91.839367,283.04299 -0.24487,28.90716 h 8.12648 l -0.90076,-22.96354 13.604053,0.0234 -0.1205,-6.73801 c -7.56967,0.0841 -9.67706,0.40811 -20.464403,0.77097 z"
       id="path12-6"
       sodipodi:nodetypes="ccccccc" />
    <path
       style="fill:#24221c;stroke-width:0.164158"
       d="m 297.72805,285.09277 -0.24488,28.90716 h 8.12648 l -0.90076,-22.96354 13.60405,0.0234 -0.1205,-6.73801 c -7.56967,0.0841 -9.67706,0.40811 -20.46439,0.77097 z"
       id="path12-6-3"
       sodipodi:nodetypes="ccccccc" />
    <path
       style="fill:#24221c;stroke-width:0.164158"
       d="m 90.035857,183.94312 0.46591,6.51641 7.38989,-0.33853 -0.94287,23.49764 h 8.126433 l -1.1625,-23.66154 8.28174,-0.32558 -0.295,-6.21451 z"
       id="path12-0"
       sodipodi:nodetypes="ccccccccc" />
    <path
       style="fill:#24221c;stroke-width:0.164158"
       d="m 251.25862,284.77436 0.46591,6.51641 7.38989,-0.33853 -0.94287,23.49764 h 8.12645 l -1.16251,-23.66154 8.28178,-0.32558 -0.295,-6.21451 z"
       id="path12-0-17"
       sodipodi:nodetypes="ccccccccc" />
    <path
       style="fill:#24221c;stroke-width:0.180858"
       d="m 203.34399,182.95089 -0.94288,28.52161 h 8.12648 l -0.46451,-28.54605 c -3.01875,0.1533 -4.16659,-0.0994 -6.71909,0.0244 z"
       id="path12-0-6"
       sodipodi:nodetypes="ccccc" />
    <path
       style="fill:#24221c;stroke-width:0.164158"
       d="m 157.2248,183.30443 0.46591,6.51641 7.38993,-0.33853 -0.94288,23.49764 h 8.12648 l -1.16251,-23.66154 8.28178,-0.32558 -0.295,-6.21451 z"
       id="path12-0-1"
       sodipodi:nodetypes="ccccccccc" />
    <path
       style="fill:#24221c;stroke-width:0.201987"
       d="m 32.567567,127.66969 -0.40107,7.11384 c -3.79096,1.00351 -8.60399,5.00016 -7.86456,14.06898 0.51328,6.29527 6.12673,12.11565 11.56842,11.21946 8.0976,-1.33359 8.64821,-13.12222 5.7358,-19.29979 -2.9124,-6.17762 -9.47276,-6.08618 -9.47276,-6.08618 l 0.37539,-7.22677 c 21.20046,0.54726 24.9241,39.57633 2.68217,39.52015 -9.74961,-0.35969 -17.23542,-7.10092 -17.61877,-18.94887 -0.37112,-11.46969 6.49223,-18.36181 14.99538,-20.36082 z"
       id="path13"
       sodipodi:nodetypes="ccssscccsc" />
    <path
       style="fill:#24221c;stroke-width:0.152298"
       d="m 50.499987,181.97676 0.29541,7.23392 c -5.83,1.48391 -4.99936,16.24496 3.36924,14.91975 6.22652,-0.98601 6.52651,-7.60438 4.28706,-12.17184 -2.23944,-4.56747 -7.7104,-3.00792 -7.7104,-3.00792 l -0.272,-6.83511 c 18.02923,-3.05031 20.2755,29.2611 3.17293,29.21956 -14.99363,-0.53188 -16.21897,-26.4024 -3.14224,-29.35836 z"
       id="path13-2"
       sodipodi:nodetypes="ccsscccc" />
    <path
       style="fill:#24221c;stroke-width:0.152298"
       d="m 182.13708,284.34658 0.29541,7.23392 c -5.82999,1.48391 -4.99935,16.24496 3.36924,14.91975 6.22653,-0.98601 6.52652,-7.60438 4.28707,-12.17184 -2.23944,-4.56747 -7.7104,-3.00792 -7.7104,-3.00792 l -0.27201,-6.83511 c 18.02923,-3.05031 20.27551,29.2611 3.17294,29.21956 -14.99363,-0.53188 -16.21897,-26.4024 -3.14225,-29.35836 z"
       id="path13-2-1"
       sodipodi:nodetypes="ccsscccc" />
    <path
       style="fill:#24221c;stroke-width:0.152298"
       d="m 327.19447,284.77533 0.29541,7.23392 c -5.82999,1.48391 -4.99935,16.24496 3.36924,14.91975 6.22653,-0.98601 6.52652,-7.60438 4.28707,-12.17184 -2.23944,-4.56747 -7.7104,-3.00792 -7.7104,-3.00792 l -0.27201,-6.83511 c 18.02923,-3.05031 20.27551,29.2611 3.17294,29.21956 -14.99363,-0.53188 -16.21897,-26.4024 -3.14225,-29.35836 z"
       id="path13-2-1-1"
       sodipodi:nodetypes="ccsscccc" />
    <path
       style="fill:#24221c;stroke-width:0.264583"
       d="m 411.97322,315.14806 v -28.26909 l 7.15452,0.5235 7.85252,15.53055 4.53702,-16.22855 9.07404,0.5235 3.31549,27.92009 -6.63101,1.22151 -2.094,-17.79906 -4.36252,15.53055 -5.40954,-0.0872 -7.24176,-14.30905 0.87252,15.44331 z"
       id="path14"
       sodipodi:nodetypes="cccccccccccccc" />
    <path
       style="fill:#24221c;stroke-width:0.232804"
       d="m 21.661995,77.330066 c 0,0 0.665347,11.333716 0.844478,17.077345 0.179132,5.743629 0.230313,17.384429 0.230313,17.384429 l 21.93573,-0.21715 -0.587823,-7.3448 -14.687116,1.2439 -0.439666,-9.0988 11.674353,0.148161 -0.524224,-5.772134 -11.12917,0.09533 -0.158205,-7.236212 14.263746,-0.353665 -0.344339,-6.461533 z"
       id="path15"
       sodipodi:nodetypes="cscccccccccccc" />
    <path
       style="fill:#24221c;stroke-width:0.264583"
       d="m 54.186931,71.999808 c 0,0 0.756169,12.880805 0.959753,19.408458 0.203584,6.527653 0.261751,19.757464 0.261751,19.757464 l 24.930027,-0.24679 -0.66806,-7.75243 -17.683559,1.01706 -0.698003,-10.935785 14.457864,-0.02994 -0.595783,-5.965087 -14.036581,0.306659 0.216841,-9.21558 17.202401,0.39134 -0.39135,-7.343553 z"
       id="path15-0"
       sodipodi:nodetypes="cscccccccccccc" />
    <ellipse
       style="fill:#24221c;stroke-width:0.305802"
       id="path16"
       cx="26.320053"
       cy="72.517029"
       rx="2.9086473"
       ry="3.0417249" />
    <ellipse
       style="fill:#24221c;stroke-width:0.305802"
       id="path16-3"
       cx="36.193035"
       cy="72.373878"
       rx="2.9086473"
       ry="3.0417249" />
  </g>
</svg>
