<?xml version="1.0" encoding="UTF-8" standalone="no"?>
<!-- Created with Inkscape (http://www.inkscape.org/) -->

<svg
   width="183.34764mm"
   height="53.180264mm"
   viewBox="0 0 183.34765 53.180265"
   version="1.1"
   id="svg1"
   inkscape:version="1.4.2 (f4327f4, 2025-05-13)"
   sodipodi:docname="bookinist.svg"
   xmlns:inkscape="http://www.inkscape.org/namespaces/inkscape"
   xmlns:sodipodi="http://sodipodi.sourceforge.net/DTD/sodipodi-0.dtd"
   xmlns="http://www.w3.org/2000/svg"
   xmlns:svg="http://www.w3.org/2000/svg">
  <sodipodi:namedview
     id="namedview1"
     pagecolor="#ffffff"
     bordercolor="#000000"
     borderopacity="0.25"
     inkscape:showpageshadow="2"
     inkscape:pageopacity="0.0"
     inkscape:pagecheckerboard="0"
     inkscape:deskcolor="#d1d1d1"
     inkscape:document-units="mm"
     inkscape:zoom="1.0721378"
     inkscape:cx="278.41571"
     inkscape:cy="238.30893"
     inkscape:window-width="1920"
     inkscape:window-height="1111"
     inkscape:window-x="-9"
     inkscape:window-y="-9"
     inkscape:window-maximized="1"
     inkscape:current-layer="layer1">
    <inkscape:page
       x="1.1932178e-08"
       y="5.9932056e-08"
       width="183.34766"
       height="53.180264"
       id="page1"
       margin="0 0 123.63733"
       bleed="0" />
  </sodipodi:namedview>
  <defs
     id="defs1" />
  <g
     inkscape:label="Слой 1"
     inkscape:groupmode="layer"
     id="layer1"
     transform="translate(-14.066523,-2.961373)">
    <path
       style="fill:#ffffff;stroke-width:0.275016"
       d="m 86.253023,11.950494 h 6.17401 l -1.16981,21.134813 7.34384,-21.008257 7.408807,-0.189838 0.065,28.032106 -6.368985,-0.126555 0.065,-17.274862 -6.109022,17.21159 h -8.31868 z"
       id="path5-2"
       sodipodi:nodetypes="ccccccccccc" />
    <path
       style="fill:#ffffff;stroke-width:0.275016"
       d="m 108.79892,11.852115 h 6.174 l -0.47093,10.870145 7.08862,-0.239459 -0.44366,-10.50413 7.40881,-0.189838 0.065,28.032108 -6.36899,-0.126557 -0.0127,-10.48207 -7.71366,-0.526739 0.2069,11.096489 -6.84328,-0.150952 z"
       id="path5-2-2"
       sodipodi:nodetypes="ccccccccccccc" />
    <path
       style="fill:#ffffff;stroke-width:0.275016"
       d="m 131.79525,11.894102 h 6.174 l -1.1698,21.134812 7.34383,-21.008257 7.40881,-0.189838 0.065,28.032107 -6.36899,-0.126555 0.065,-17.274863 -6.10902,17.21159 h -8.31868 z"
       id="path5-2-6"
       sodipodi:nodetypes="ccccccccccc" />
    <path
       style="fill:#24221c;stroke-width:0.110261"
       d="m 44.547866,42.865266 5.304697,0.207355"
       id="path6" />
    <path
       style="fill:#ffffff;stroke-width:0.097108"
       d="M 39.382238,12.192824 40.102464,5.2177408 14.26995,4.4003938 14.91932,40.571775 c 0,0 26.188241,2.906256 26.650655,-8.657165 C 42.385631,11.517789 21.221294,18.702169 21.221294,18.702169 l 0.09003,7.289869 c 0,0 13.294169,-7.065017 13.514425,4.234023 0.109242,5.604104 -13.24434,3.511463 -13.24434,3.511463 0,0 0.01237,-22.122736 -0.527794,-22.122736 4.891087,0.266228 13.431885,0.578036 18.328625,0.578036 z"
       id="path8"
       sodipodi:nodetypes="ccccsccscsc" />
    <path
       style="fill:#ffffff;stroke-width:0.110261"
       d="m 37.838244,14.280824 7.108913,-2.147481 6.399586,14.539601 4.91099,-14.872608 6.61367,2.403438 -15.381604,40.773137 -7.533067,-2.2998 7.260419,-18.101465 z"
       id="path9"
       sodipodi:nodetypes="ccccccccc" />
    <path
       style="fill:#ffffff;stroke-width:0.110261"
       d="m 63.645003,40.631945 -0.01105,-28.781415 6.435071,-0.146623 0.22233,9.245931 6.014912,-9.720917 6.305597,2.026064 -8.037789,11.565229 10.345988,9.949485 -4.599656,5.677445 -9.959163,-10.839574 0.25583,10.617475 z"
       id="path10"
       sodipodi:nodetypes="cccccccccccc" />
    <path
       style="fill:#ffffff;stroke-width:0.164158"
       d="m 173.17517,11.733117 -1.09818,6.938001 c 0,0 -12.10674,-4.830815 -11.91517,6.671156 0.20557,12.34245 13.23298,7.204848 13.23298,7.204848 l 1.3178,6.831264 c 0,0 -20.76997,6.523515 -21.08491,-13.128835 -0.35481,-22.1397002 19.54748,-14.516434 19.54748,-14.516434 z"
       id="path11"
       sodipodi:nodetypes="ccsccsc" />
    <path
       style="fill:#ffffff;stroke-width:0.164158"
       d="m 174.60831,10.883919 0.46591,6.51641 7.38993,-0.338529 -0.94288,23.497638 h 8.12648 l -1.16251,-23.661538 8.28178,-0.325579 -0.295,-6.21451 z"
       id="path12"
       sodipodi:nodetypes="ccccccccc" />
  </g>
</svg>
