<?xml version="1.0" encoding="UTF-8" standalone="no"?>
<!-- Created with Inkscape (http://www.inkscape.org/) -->

<svg
   width="210.349mm"
   height="26.873089mm"
   viewBox="0 0 210.349 26.873089"
   version="1.1"
   id="svg1"
   inkscape:version="1.4.2 (f4327f4, 2025-05-13)"
   sodipodi:docname="knigi_po_kategorijam.svg"
   xmlns:inkscape="http://www.inkscape.org/namespaces/inkscape"
   xmlns:sodipodi="http://sodipodi.sourceforge.net/DTD/sodipodi-0.dtd"
   xmlns="http://www.w3.org/2000/svg"
   xmlns:svg="http://www.w3.org/2000/svg">
  <sodipodi:namedview
     id="namedview1"
     pagecolor="#ffffff"
     bordercolor="#ffffff"
     borderopacity="0.25"
     inkscape:showpageshadow="2"
     inkscape:pageopacity="0.0"
     inkscape:pagecheckerboard="0"
     inkscape:deskcolor="#d1d1d1"
     inkscape:document-units="mm"
     showguides="true"
     inkscape:zoom="0.75811588"
     inkscape:cx="377.91056"
     inkscape:cy="274.36439"
     inkscape:window-width="1920"
     inkscape:window-height="1111"
     inkscape:window-x="-9"
     inkscape:window-y="-9"
     inkscape:window-maximized="1"
     inkscape:current-layer="layer1">
    <sodipodi:guide
       position="171.70857,157.74854"
       orientation="0,-1"
       id="guide1"
       inkscape:locked="false" />
  </sodipodi:namedview>
  <defs
     id="defs1" />
  <g
     inkscape:label="Слой 1"
     inkscape:groupmode="layer"
     id="layer1"
     transform="translate(0.34900118)">
    <path
       style="fill:#24221c;stroke-width:0.11781"
       d="m 75.78221,6.8057116 0.346183,13.4494994 -3.217429,-0.263959 -0.346967,-9.637666 -4.656706,-0.187815 0.194757,10.145258 c 0,0 -1.323626,0.09725 -3.609815,-0.102792 0.399441,-3.526786 0.23104,-13.8090165 0.23104,-13.8090165 3.998743,0.142694 7.321773,0.2333924 11.058937,0.4064932 z"
       id="path1-3"
       sodipodi:nodetypes="ccccccccc" />
    <path
       style="fill:#24221c;stroke-width:0.150779"
       d="m 191.32807,7.1093589 0.11128,14.1767281 -3.24427,-0.100214 0.35792,-11.5714747 c 0,0 -3.77578,-0.2767712 -3.93593,1.5664897 -0.13673,1.573727 0.76373,1.500487 4.05367,2.004737 -0.24185,0.810132 -0.13812,1.871785 -0.13812,2.701543 0,0 -4.00358,5.679588 -6.75108,5.070055 -0.79996,-0.177472 -1.15697,-2.16895 -1.15697,-2.16895 1.75888,0 5.31003,-3.421794 5.31003,-3.421794 0,0 -3.88317,0.921669 -3.96456,-3.968902 -0.0745,-4.4783729 6.5204,-4.3329392 6.5204,-4.3329392 z"
       id="path2-8"
       sodipodi:nodetypes="ccccsccaccscc" />
    <path
       style="fill:#24221c;stroke-width:0.163245"
       d="m 159.41147,7.1160848 -0.0982,18.8333992 2.86259,-0.133133 -0.16754,-16.0352465 c 0,0 3.62814,0.2951725 3.76942,2.7438975 0.12065,2.090656 -1.19282,3.319087 -4.0957,3.988969 0.21339,1.076233 0.19598,1.466819 0.19598,2.569133 0,0 6.13346,-1.15498 6.12416,-5.935376 -0.0115,-5.9502036 -6.08691,-6.091054 -6.08691,-6.091054 z"
       id="path2-0"
       sodipodi:nodetypes="ccccsccscc" />
    <path
       style="fill:#24221c;stroke-width:0.120373"
       d="m 105.16368,7.799233 0.39291,3.181977 c 0,0 4.49151,-2.5286435 5.05169,0.640421 0.6056,3.426082 0.72862,4.712442 -0.1872,6.16324 -0.3892,0.616543 -2.55327,1.419592 -3.11106,0.159325 -1.31931,-2.980863 3.14847,-2.653946 4.10594,-1.695443 0.22716,-1.600801 -0.14128,-2.913123 -0.14128,-2.913123 0,0 -9.0347,-1.584455 -6.35014,5.577108 0.96494,2.574178 2.85141,2.413307 4.54577,2.299825 0.98663,-0.06609 2.44482,-1.680264 2.44482,-1.680264 0,0 0.21096,0.604933 1.10323,1.260602 0.54405,0.399771 1.68774,0.608185 1.73267,0.517529 l 1.44491,-2.915992 c -0.94081,-0.139194 -1.77151,-0.404014 -2.31686,-1.407219 -1.24407,-2.605955 0.83955,-6.320187 -1.67069,-8.8384004 -2.36584,-2.3733376 -7.04471,-0.3496003 -7.04471,-0.3496003 z"
       id="path3-1-9-2-1"
       sodipodi:nodetypes="ccsssccsacsscsscc" />
    <path
       style="fill:#24221c;stroke-width:0.123523"
       d="m 127.56166,12.459312 c -0.23569,1.624636 0.47632,2.553941 0.47632,2.553941 2.8794,0.133113 4.80742,-0.02759 7.55037,-0.812126 0,0 -0.1664,-2.997422 -0.86276,-4.814464 -1.0012,-2.6124942 -2.96984,-2.709158 -4.74952,-2.5353254 -1.6762,0.1637208 -2.69326,0.826218 -3.94512,3.2102014 -1.66093,3.162968 -0.7152,8.044134 1.03825,10.215737 2.45471,2.408667 6.91369,0.354802 6.91369,0.354802 l 1.5497,-0.905747 -0.77037,-2.826797 c 0,0 -5.81427,3.069473 -6.39549,-0.146767 -0.62835,-3.477087 -0.28298,-6.045198 1.21636,-6.9259068 2.47687,-1.4548897 2.93825,0.3377838 3.55765,2.6896968"
       id="path3-1-9-2-1-0"
       sodipodi:nodetypes="ccssasscccssc" />
    <path
       style="fill:#24221c;stroke-width:0.127394"
       d="m 169.51831,7.5976489 2.82204,4.3e-6 -0.5347,9.9216908 3.35674,-9.8622799 3.38645,-0.08912 0.0296,13.1596119 -2.91117,-0.05941 0.0297,-8.109651 -2.79234,8.079949 h -3.80233 z"
       id="path5-25"
       sodipodi:nodetypes="ccccccccccc" />
    <path
       style="fill:#24221c;stroke-width:0.132418"
       d="m 26.598066,6.7859164 h 2.972726 L 29.00754,16.962124 32.543528,6.8468496 36.1108,6.755443 l 0.0313,13.497191 -3.066608,-0.06095 0.0313,-8.317679 -2.941434,8.287216 h -4.005369 z"
       id="path5-2-9"
       sodipodi:nodetypes="ccccccccccc" />
    <path
       style="fill:#24221c;stroke-width:0.132418"
       d="m 48.558098,7.0062753 h 2.972727 l -0.563253,10.1762067 3.535989,-10.1152736 3.56727,-0.091407 0.0313,13.4971906 -3.066607,-0.06095 0.0313,-8.31768 -2.941434,8.287216 h -4.00537 z"
       id="path5-2-9-4"
       sodipodi:nodetypes="ccccccccccc" />
    <path
       style="fill:#24221c;stroke-width:0.132418"
       d="m 15.171918,6.7429819 h 2.972722 l -0.226748,5.2338761 3.413103,-0.115297 -0.213619,-5.0576419 3.56727,-0.091405 0.0313,13.4971959 -3.066608,-0.06095 -0.0061,-5.047016 -3.714054,-0.25362 0.09962,5.342853 -3.294973,-0.07269 z"
       id="path5-2-2-1-1-2"
       sodipodi:nodetypes="ccccccccccccc" />
    <path
       style="fill:#24221c;stroke-width:0.0530897"
       d="m 93.834478,21.119596 -0.0057,-13.8579711 3.098423,-0.070599 0.107045,4.4518251 2.896125,-4.6805278 3.036079,0.9755291 -3.870122,5.5685457 4.981502,4.790583 -2.2147,2.733633 -4.795227,-5.219148 0.123179,5.11221 z"
       id="path10-0-4"
       sodipodi:nodetypes="cccccccccccc" />
    <path
       style="fill:#24221c;stroke-width:0.0530897"
       d="M 2.578168,20.541028 2.0975539,3.4154253 5.6712721,3.344826 5.7783217,9.2819367 9.4467904,2.8784788 12.661109,4.2698894 7.8404097,11.323725 14.01013,18.312524 11.37956,20.630279 5.7525621,13.74761 5.9351526,20.345107 Z"
       id="path10-1-6"
       sodipodi:nodetypes="cccccccccccc" />
    <path
       style="fill:#24221c;stroke-width:0.0790405"
       d="M 37.716459,6.2764332 37.598554,20.194952 h 3.912821 L 41.077668,9.1382284 47.627887,9.1494873 47.569869,5.9052018 C 43.925148,5.945697 42.910458,6.101703 37.71646,6.2764163 Z"
       id="path12-6"
       sodipodi:nodetypes="ccccccc" />
    <path
       style="fill:#24221c;stroke-width:0.0790405"
       d="m 136.84988,7.263383 -0.11791,13.918518 h 3.91282 l -0.43369,-11.056723 6.5502,0.01125 -0.0581,-3.2442846 c -3.64472,0.040495 -4.65941,0.1965005 -9.8534,0.3712145 z"
       id="path12-6-3"
       sodipodi:nodetypes="ccccccc" />
    <path
       style="fill:#24221c;stroke-width:0.0790405"
       d="m 114.47529,7.1100715 0.22433,3.1375865 3.55817,-0.162999 -0.45399,11.313889 h 3.91281 l -0.55974,-11.392804 3.9876,-0.1567633 -0.14204,-2.9922266 z"
       id="path12-0-17"
       sodipodi:nodetypes="ccccccccc" />
    <path
       style="fill:#24221c;stroke-width:0.07333"
       d="m 81.193933,6.9040992 0.142239,3.4830618 c -2.807082,0.714489 -2.407137,7.821792 1.622254,7.183716 2.998022,-0.474754 3.142457,-3.661435 2.064187,-5.860624 -1.078268,-2.1991923 -3.712487,-1.448284 -3.712487,-1.448284 L 81.179158,6.9709303 C 89.860062,5.5022353 90.941625,21.059868 82.706898,21.039866 75.487611,20.783771 74.897622,8.3273656 81.193933,6.9040992 Z"
       id="path13-2-1"
       sodipodi:nodetypes="ccsscccc" />
    <path
       style="fill:#24221c;stroke-width:0.07333"
       d="m 151.03768,7.1105383 0.14224,3.4830607 c -2.80708,0.714489 -2.40714,7.821793 1.62225,7.183717 2.99801,-0.474754 3.14246,-3.661436 2.06418,-5.860625 -1.07827,-2.1991908 -3.71248,-1.448283 -3.71248,-1.448283 L 151.0229,7.1773693 c 8.68091,-1.468695 9.76247,14.0889377 1.52774,14.0689367 -7.21929,-0.256096 -7.80928,-12.7125023 -1.51296,-14.1357677 z"
       id="path13-2-1-1"
       sodipodi:nodetypes="ccsscccc" />
    <path
       style="fill:#24221c;stroke-width:0.127394"
       d="M 193.97452,20.147214 V 6.5359202 l 3.44482,0.2520595 3.78091,7.4778103 2.18454,-7.8138894 4.36906,0.2520598 1.59637,13.4432536 -3.19276,0.588146 -1.00824,-8.570078 -2.10051,7.477812 -2.60465,-0.04199 -3.48683,-6.889671 0.42011,7.435805 z"
       id="path14"
       sodipodi:nodetypes="cccccccccccccc" />
  </g>
</svg>
