<?xml version="1.0" encoding="UTF-8" standalone="no"?>
<!-- Created with Inkscape (http://www.inkscape.org/) -->

<svg
   width="85.406578mm"
   height="25.826086mm"
   viewBox="0 0 85.406579 25.826086"
   version="1.1"
   id="svg1"
   inkscape:version="1.4.2 (f4327f4, 2025-05-13)"
   sodipodi:docname="pravila.svg"
   xmlns:inkscape="http://www.inkscape.org/namespaces/inkscape"
   xmlns:sodipodi="http://sodipodi.sourceforge.net/DTD/sodipodi-0.dtd"
   xmlns="http://www.w3.org/2000/svg"
   xmlns:svg="http://www.w3.org/2000/svg">
  <sodipodi:namedview
     id="namedview1"
     pagecolor="#ffffff"
     bordercolor="#000000"
     borderopacity="0.25"
     inkscape:showpageshadow="2"
     inkscape:pageopacity="0.0"
     inkscape:pagecheckerboard="0"
     inkscape:deskcolor="#d1d1d1"
     inkscape:document-units="mm"
     showguides="true"
     inkscape:zoom="0.75811588"
     inkscape:cx="338.33878"
     inkscape:cy="275.02392"
     inkscape:window-width="1920"
     inkscape:window-height="1111"
     inkscape:window-x="-9"
     inkscape:window-y="-9"
     inkscape:window-maximized="1"
     inkscape:current-layer="layer1">
    <sodipodi:guide
       position="161.23853,5.9330236"
       orientation="0,-1"
       id="guide1"
       inkscape:locked="false" />
  </sodipodi:namedview>
  <defs
     id="defs1" />
  <g
     inkscape:label="Слой 1"
     inkscape:groupmode="layer"
     id="layer1"
     transform="translate(-10.121034)">
    <path
       style="fill:#24221c;stroke-width:0.127213"
       d="M 12.21432,2.5578098 24.296034,2.3900091 24.325702,21.21432 20.5205,21.091426 21.107805,5.6621127 15.714456,5.850271 15.384817,21.272748 c 0,0 -1.474441,0.101791 -4.021125,-0.1076 0.444949,-3.691637 0.850633,-18.6073617 0.850633,-18.6073617 z"
       id="path1"
       sodipodi:nodetypes="cccccccccc" />
    <path
       style="fill:#24221c;stroke-width:0.168941"
       d="m 26.467003,5.8950244 -0.27552,19.5774996 3.658093,0.03612 -0.260328,-16.0730503 c 0,0 3.146058,-0.2162382 3.292287,2.3179303 0.124847,2.163604 -0.538829,2.826236 -3.543016,3.519494 0.220843,1.113785 0.202834,2.126661 0.202834,3.267438 0,0 6.347464,-1.19528 6.337842,-6.142477 C 35.867235,6.2401551 29.579881,6.09439 29.579881,6.09439 Z"
       id="path2"
       sodipodi:nodetypes="ccccsccscc" />
    <path
       style="fill:#24221c;stroke-width:0.124197"
       d="m 37.219068,7.0454531 0.406621,3.1888019 c 0,0 4.735186,-2.9056681 5.314907,0.35417 0.62674,3.524229 0.580146,4.847435 -0.367628,6.339796 -0.402773,0.634201 -2.258697,1.722109 -2.828326,0.422397 -1.191223,-2.717998 3.013298,-2.913064 3.944876,-2.045718 0.235079,-1.646658 -0.233175,-2.996568 -0.233175,-2.996568 0,0 -9.668173,-0.04818 -6.093468,6.255425 2.932376,5.170908 7.017129,-0.09968 7.017129,-0.09968 0,0 0.229342,0.726524 0.476293,1.00166 0.437526,0.487467 1.640997,1.07843 1.673478,1.030027 l 1.805136,-2.690168 C 47.383006,17.197867 47.237719,17.269053 46.673349,16.237112 45.385861,13.556506 47.107419,9.9954188 44.509585,7.4050745 42.061203,4.963749 37.219068,7.0454531 37.219068,7.0454531 Z"
       id="path3"
       sodipodi:nodetypes="ccsssccscascssc" />
    <path
       style="fill:#24221c;stroke-width:0.124573"
       d="m 83.807717,6.5022913 0.232717,3.1625818 c 0,0 5.169946,-2.8777289 5.749667,0.4019059 0.626735,3.545635 0.580146,4.572548 -0.367633,6.073969 -0.402769,0.638056 -2.164127,1.643029 -3.045703,0.512706 -2.074713,-2.660116 2.910516,-2.833502 3.901397,-1.841554 0.235084,-1.656658 -0.189694,-3.536481 -0.189694,-3.536481 0,0 -9.207515,-1.053812 -6.136949,6.815132 1.683331,4.313872 7.073341,0.447085 7.073341,0.447085 0,0 0.439652,0.78746 0.793928,1.085572 0.354269,0.298113 1.30144,0.753411 1.330376,0.70257 l 1.651878,-2.902041 C 93.849137,16.812319 93.773247,16.818991 93.208879,15.780782 91.92139,13.083897 93.869971,9.4701706 91.272138,6.8640952 88.823751,4.4079455 83.807717,6.5022913 83.807717,6.5022913 Z"
       id="path3-1"
       sodipodi:nodetypes="ccsssccsczscssc" />
    <path
       style="fill:#24221c;stroke-width:0.131839"
       d="m 49.760023,5.9204921 -0.137889,14.1563249 2.599432,0.0975 c 0,0 4.582844,0.176365 5.197587,-0.994299 3.3564,-6.391604 -5.996881,-6.691246 -5.996881,-6.691246 l -0.09223,2.171238 c 0,0 4.035637,1.081595 3.918161,2.325544 -0.117475,1.243949 -2.934418,0.637165 -2.934418,0.637165 L 52.165358,8.7500508 c 0,0 2.787725,-0.6341695 2.80061,0.9104371 0.02003,2.4005521 -3.697402,1.1989471 -3.697402,1.1989471 l -0.06148,1.660077 c 0,0 6.745877,2.059771 6.592572,-3.1956595 C 57.698771,5.8655654 51.821918,6.063656 51.821918,6.063656 Z"
       id="path4"
       sodipodi:nodetypes="cccscczccsccscc" />
    <path
       style="fill:#24221c;stroke-width:0.131839"
       d="m 59.786271,6.4633001 2.920502,5e-6 -0.553356,10.2678879 3.473868,-10.2064039 3.504608,-0.092229 0.03075,13.6187899 -3.01274,-0.06149 0.03075,-8.392621 -2.889768,8.361881 h -3.934994 z"
       id="path5"
       sodipodi:nodetypes="ccccccccccc" />
    <path
       style="fill:#24221c;stroke-width:0.131839"
       d="m 70.256356,17.130842 -0.184457,3.443125 c 0,0 4.479152,-0.441705 5.810276,-1.99824 2.022412,-2.3649 1.629335,-9.1919202 1.629335,-9.1919202 l 1.156374,-0.1229681 0.173904,10.9187563 3.342534,0.02546 L 81.63096,6.125136 74.161517,6.3232265 c 0,0 1.049864,6.8179445 -0.75646,9.3841735 -0.662985,0.941894 -3.148701,1.423437 -3.148701,1.423437 z"
       id="path7"
       sodipodi:nodetypes="ccaccccccac" />
  </g>
</svg>
