<?xml version="1.0" encoding="UTF-8" standalone="no"?>
<!-- Created with Inkscape (http://www.inkscape.org/) -->

<svg
   version="1.1"
   id="svg1"
   width="63.893646"
   height="36.453579"
   viewBox="0 0 63.893646 36.453579"
   sodipodi:docname="VK_logo.svg"
   inkscape:version="1.4.2 (f4327f4, 2025-05-13)"
   xmlns:inkscape="http://www.inkscape.org/namespaces/inkscape"
   xmlns:sodipodi="http://sodipodi.sourceforge.net/DTD/sodipodi-0.dtd"
   xmlns="http://www.w3.org/2000/svg"
   xmlns:svg="http://www.w3.org/2000/svg">
  <defs
     id="defs1" />
  <sodipodi:namedview
     id="namedview1"
     pagecolor="#ffffff"
     bordercolor="#000000"
     borderopacity="0.25"
     inkscape:showpageshadow="2"
     inkscape:pageopacity="0.0"
     inkscape:pagecheckerboard="0"
     inkscape:deskcolor="#d1d1d1"
     showgrid="false"
     inkscape:zoom="9.4023105"
     inkscape:cx="39.192494"
     inkscape:cy="23.026255"
     inkscape:window-width="1920"
     inkscape:window-height="1111"
     inkscape:window-x="-9"
     inkscape:window-y="-9"
     inkscape:window-maximized="1"
     inkscape:current-layer="g1" />
  <g
     inkscape:groupmode="layer"
     inkscape:label="Image"
     id="g1"
     transform="translate(-0.10635684)">
    <path
       style="fill:#ffffff;stroke-width:0.943022"
       d="m 36.79026,0.76783462 c 0.8228,1.42512298 0.20059,17.15076338 0.20059,17.15076338 0,0 7.52208,-4.874546 12.838,-17.29973238 0.369,-0.8624793 7.62016,-0.154581 10.52196,-0.4183963 5.42901,-0.493573 -9.7189,18.41890068 -9.74896,19.32792068 -0.0327,0.988483 4.88605,4.725908 9.16189,8.765946 4.27584,4.040038 5.38832,7.890648 2.75279,7.87829 -1.52535,-0.0072 -6.30262,0.01942 -10.68174,-0.07523 -2.6002,-0.05619 -3.9708,-2.99615 -7.03173,-5.922051 -3.06094,-2.925903 -7.81221,-5.837757 -7.81221,-5.837757 -0.0301,-0.09036 -0.1496,3.582148 -0.20059,10.029687 -0.0225,2.850095 -7.80754,2.286674 -11.43384,0.601781 C 21.230942,33.052231 17.879826,30.420316 14.825249,27.346502 11.277626,23.776537 8.8984687,19.485075 6.5005077,15.060138 4.3367137,11.067309 3.3991107,5.8923706 0.48279867,2.3725836 -1.6518513,-0.20379068 9.5793127,0.60069662 12.919609,0.66753862 c 2.003848,0.0401 1.129481,6.86254898 5.967663,13.94126338 1.874316,2.7423 6.970628,7.121076 6.970628,7.121076 0,0 -0.19871,-10.335289 -0.22566,-15.8719774 -0.002,-0.415439 -3.802196,-5.29065898 -2.081164,-5.29065898 4.949154,0 12.845494,-0.4813013 13.239184,0.200593 z"
       id="path1"
       sodipodi:nodetypes="scssssssscssssssscsss" />
  </g>
</svg>
